<mxfile host="app.diagrams.net" agent="Mozilla/5.0 (Macintosh; Intel Mac OS X 10_15_7) AppleWebKit/537.36 (KHTML, like Gecko) Chrome/136.0.0.0 Safari/537.36" version="27.0.6">
  <diagram name="Page-1" id="k4t7Fh62JH2ekI2vu4wx">
    <mxGraphModel grid="1" page="1" gridSize="10" guides="1" tooltips="1" connect="1" arrows="1" fold="1" pageScale="1" pageWidth="850" pageHeight="1100" math="0" shadow="0">
      <root>
        <mxCell id="0" />
        <mxCell id="1" parent="0" />
        <mxCell id="33pd38F1LfGGqyuG2Xvv-1" value="ServiceRequest" style="rounded=1;whiteSpace=wrap;html=1;fillColor=light-dark(#b4c6e5, #1d293b);strokeColor=#6c8ebf;shadow=1;" vertex="1" parent="1">
          <mxGeometry x="90" y="280" width="120" height="60" as="geometry" />
        </mxCell>
        <mxCell id="33pd38F1LfGGqyuG2Xvv-2" value="ImagingStudy" style="rounded=1;whiteSpace=wrap;html=1;fillColor=light-dark(#b4c6e5, #1d293b);strokeColor=#6c8ebf;shadow=1;" vertex="1" parent="1">
          <mxGeometry x="365" y="280" width="120" height="60" as="geometry" />
        </mxCell>
        <mxCell id="33pd38F1LfGGqyuG2Xvv-3" value="Observation" style="rounded=1;whiteSpace=wrap;html=1;fillColor=light-dark(#b4c6e5, #1d293b);strokeColor=#6c8ebf;shadow=1;" vertex="1" parent="1">
          <mxGeometry x="465" y="380" width="120" height="60" as="geometry" />
        </mxCell>
        <mxCell id="33pd38F1LfGGqyuG2Xvv-4" value="DiagnosticReport" style="rounded=1;whiteSpace=wrap;html=1;fillColor=light-dark(#b4c6e5, #1d293b);strokeColor=#6c8ebf;shadow=1;" vertex="1" parent="1">
          <mxGeometry x="170" y="430" width="120" height="60" as="geometry" />
        </mxCell>
        <mxCell id="33pd38F1LfGGqyuG2Xvv-5" value="Specimen" style="rounded=1;whiteSpace=wrap;html=1;fillColor=light-dark(#b4c6e5, #1d293b);strokeColor=#6c8ebf;shadow=1;" vertex="1" parent="1">
          <mxGeometry x="100" y="570" width="120" height="60" as="geometry" />
        </mxCell>
        <mxCell id="33pd38F1LfGGqyuG2Xvv-6" value="Sequence" style="rounded=1;whiteSpace=wrap;html=1;fillColor=light-dark(#b4c6e5, #1d293b);strokeColor=#6c8ebf;shadow=1;" vertex="1" parent="1">
          <mxGeometry x="360" y="570" width="120" height="60" as="geometry" />
        </mxCell>
        <mxCell id="33pd38F1LfGGqyuG2Xvv-7" value="GenomicStudy" style="rounded=1;whiteSpace=wrap;html=1;fillColor=light-dark(#b4c6e5, #1d293b);strokeColor=#6c8ebf;shadow=1;" vertex="1" parent="1">
          <mxGeometry x="585" y="280" width="120" height="60" as="geometry" />
        </mxCell>
        <mxCell id="33pd38F1LfGGqyuG2Xvv-8" value="" style="rounded=1;whiteSpace=wrap;html=1;strokeColor=light-dark(#b4c6e5, #ededed);perimeterSpacing=0;strokeWidth=3;fillColor=none;" vertex="1" parent="1">
          <mxGeometry x="350" y="260" width="370" height="230" as="geometry" />
        </mxCell>
        <mxCell id="33pd38F1LfGGqyuG2Xvv-10" value="" style="endArrow=classic;html=1;rounded=0;strokeWidth=3;" edge="1" parent="1">
          <mxGeometry width="50" height="50" relative="1" as="geometry">
            <mxPoint x="330" y="310" as="sourcePoint" />
            <mxPoint x="240" y="309.5" as="targetPoint" />
          </mxGeometry>
        </mxCell>
        <mxCell id="33pd38F1LfGGqyuG2Xvv-11" value="" style="endArrow=classic;html=1;rounded=0;strokeWidth=3;" edge="1" parent="1">
          <mxGeometry width="50" height="50" relative="1" as="geometry">
            <mxPoint x="120" y="540" as="sourcePoint" />
            <mxPoint x="120" y="360" as="targetPoint" />
          </mxGeometry>
        </mxCell>
        <mxCell id="blMxutcgURdo506oqpzk-2" value="" style="endArrow=classic;html=1;rounded=0;strokeWidth=3;" edge="1" parent="1">
          <mxGeometry width="50" height="50" relative="1" as="geometry">
            <mxPoint x="450" y="410" as="sourcePoint" />
            <mxPoint x="410" y="350" as="targetPoint" />
          </mxGeometry>
        </mxCell>
        <mxCell id="blMxutcgURdo506oqpzk-3" value="" style="endArrow=classic;html=1;rounded=0;strokeWidth=3;" edge="1" parent="1">
          <mxGeometry width="50" height="50" relative="1" as="geometry">
            <mxPoint x="300" y="460" as="sourcePoint" />
            <mxPoint x="340" y="430" as="targetPoint" />
          </mxGeometry>
        </mxCell>
        <mxCell id="blMxutcgURdo506oqpzk-4" value="" style="endArrow=classic;html=1;rounded=0;strokeWidth=3;" edge="1" parent="1">
          <mxGeometry width="50" height="50" relative="1" as="geometry">
            <mxPoint x="210" y="420" as="sourcePoint" />
            <mxPoint x="180" y="360" as="targetPoint" />
          </mxGeometry>
        </mxCell>
        <mxCell id="blMxutcgURdo506oqpzk-5" value="" style="endArrow=classic;html=1;rounded=0;strokeWidth=3;" edge="1" parent="1">
          <mxGeometry width="50" height="50" relative="1" as="geometry">
            <mxPoint x="140" y="360" as="sourcePoint" />
            <mxPoint x="140" y="540" as="targetPoint" />
          </mxGeometry>
        </mxCell>
        <mxCell id="blMxutcgURdo506oqpzk-6" value="" style="endArrow=classic;html=1;rounded=0;strokeWidth=3;" edge="1" parent="1">
          <mxGeometry width="50" height="50" relative="1" as="geometry">
            <mxPoint x="230" y="500" as="sourcePoint" />
            <mxPoint x="170" y="550" as="targetPoint" />
          </mxGeometry>
        </mxCell>
        <mxCell id="blMxutcgURdo506oqpzk-7" value="" style="endArrow=classic;html=1;rounded=0;strokeWidth=3;" edge="1" parent="1">
          <mxGeometry width="50" height="50" relative="1" as="geometry">
            <mxPoint x="340" y="600" as="sourcePoint" />
            <mxPoint x="240" y="600" as="targetPoint" />
          </mxGeometry>
        </mxCell>
        <mxCell id="blMxutcgURdo506oqpzk-9" value="" style="endArrow=classic;html=1;rounded=0;strokeWidth=3;" edge="1" parent="1">
          <mxGeometry width="50" height="50" relative="1" as="geometry">
            <mxPoint x="340" y="480" as="sourcePoint" />
            <mxPoint x="230" y="570" as="targetPoint" />
          </mxGeometry>
        </mxCell>
        <mxCell id="blMxutcgURdo506oqpzk-11" value="" style="endArrow=classic;html=1;rounded=0;strokeWidth=3;" edge="1" parent="1">
          <mxGeometry width="50" height="50" relative="1" as="geometry">
            <mxPoint x="410" y="560" as="sourcePoint" />
            <mxPoint x="514.5" y="450" as="targetPoint" />
          </mxGeometry>
        </mxCell>
        <mxCell id="blMxutcgURdo506oqpzk-12" value="" style="endArrow=classic;html=1;rounded=0;strokeWidth=3;" edge="1" parent="1">
          <mxGeometry width="50" height="50" relative="1" as="geometry">
            <mxPoint x="534.5" y="450" as="sourcePoint" />
            <mxPoint x="430" y="560" as="targetPoint" />
          </mxGeometry>
        </mxCell>
        <mxCell id="blMxutcgURdo506oqpzk-13" value="" style="endArrow=classic;html=1;rounded=0;strokeWidth=3;" edge="1" parent="1">
          <mxGeometry width="50" height="50" relative="1" as="geometry">
            <mxPoint x="600" y="430" as="sourcePoint" />
            <mxPoint x="580" y="450" as="targetPoint" />
            <Array as="points">
              <mxPoint x="640" y="430" />
              <mxPoint x="640" y="480" />
              <mxPoint x="580" y="480" />
            </Array>
          </mxGeometry>
        </mxCell>
        <mxCell id="blMxutcgURdo506oqpzk-14" value="" style="endArrow=classic;html=1;rounded=0;strokeWidth=3;" edge="1" parent="1">
          <mxGeometry width="50" height="50" relative="1" as="geometry">
            <mxPoint x="600" y="400" as="sourcePoint" />
            <mxPoint x="650" y="350" as="targetPoint" />
          </mxGeometry>
        </mxCell>
        <mxCell id="blMxutcgURdo506oqpzk-15" value="" style="endArrow=classic;html=1;rounded=0;strokeWidth=3;" edge="1" parent="1">
          <mxGeometry width="50" height="50" relative="1" as="geometry">
            <mxPoint x="490" y="620" as="sourcePoint" />
            <mxPoint x="470" y="640" as="targetPoint" />
            <Array as="points">
              <mxPoint x="530" y="620" />
              <mxPoint x="530" y="670" />
              <mxPoint x="470" y="670" />
            </Array>
          </mxGeometry>
        </mxCell>
      </root>
    </mxGraphModel>
  </diagram>
</mxfile>
